<?xml version="1.0" standalone="no"?>
<!DOCTYPE svg PUBLIC "-//W3C//DTD SVG 20010904//EN"
 "http://www.w3.org/TR/2001/REC-SVG-20010904/DTD/svg10.dtd">
<svg version="1.0" xmlns="http://www.w3.org/2000/svg"
 width="300.000000pt" height="166.000000pt" viewBox="0 0 300.000000 166.000000"
 preserveAspectRatio="xMidYMid meet">
<metadata>
Created by potrace 1.10, written by Peter Selinger 2001-2011
</metadata>
<g transform="translate(0.000000,166.000000) scale(0.100000,-0.100000)"
fill="#000000" stroke="none">
<path d="M1750 1589 l0 -46 56 -7 c71 -8 109 -28 131 -69 17 -30 18 -77 18
-627 0 -646 1 -630 -55 -672 -14 -10 -52 -21 -85 -26 l-60 -7 -3 -47 -3 -48
393 0 394 0 -1 45 c0 50 8 45 -104 60 -24 3 -55 12 -70 20 -52 26 -56 47 -59
338 l-3 267 160 0 c89 0 172 -5 188 -11 57 -21 84 -64 107 -172 6 -25 10 -27
51 -27 l45 0 0 275 0 275 -43 0 -43 0 -22 -75 c-23 -77 -50 -113 -95 -127 -12
-3 -95 -6 -184 -7 l-163 -1 0 294 c0 260 2 296 16 311 15 14 40 16 198 13 169
-3 184 -5 218 -26 46 -28 97 -108 128 -200 l23 -68 50 9 49 10 -6 61 c-3 34
-8 108 -11 166 -3 58 -8 119 -11 136 l-4 31 -600 -1 -600 -1 0 -46z m1190
-115 c15 -207 15 -214 -15 -214 -16 0 -28 7 -32 18 -3 9 -23 54 -44 99 -69
146 -127 173 -370 173 -137 0 -169 -8 -190 -47 -16 -30 -18 -598 -2 -614 6 -6
82 -10 183 -10 211 1 231 8 272 91 15 30 28 66 30 80 2 19 10 26 30 28 l28 3
-1 -246 0 -246 -27 3 c-22 2 -28 10 -34 42 -14 64 -48 114 -93 136 -38 19 -59
20 -216 18 l-174 -3 -6 -125 c-3 -69 -3 -197 1 -286 5 -143 8 -163 28 -191 24
-34 75 -58 143 -68 52 -8 59 -12 59 -31 0 -16 0 -16 -160 -15 -63 0 -219 0
-347 1 -222 0 -231 1 -226 19 3 13 17 21 41 26 67 12 120 41 139 77 17 31 18
74 21 612 2 395 -1 596 -8 632 -15 70 -60 110 -136 120 -45 5 -53 9 -57 30
l-4 24 571 2 c314 2 574 0 579 -3 4 -3 12 -64 17 -135z"/>
<path d="M785 1615 c-169 -26 -337 -92 -459 -179 -235 -168 -355 -455 -317
-758 22 -178 78 -295 201 -418 117 -117 263 -184 470 -215 72 -11 204 -15 548
-15 l452 0 0 49 0 49 -52 7 c-29 4 -68 13 -86 21 -63 26 -62 18 -62 676 0 545
1 596 18 628 19 38 53 54 135 65 l47 6 0 50 0 49 -407 -1 c-275 -1 -434 -5
-488 -14z m885 -34 l0 -40 -47 -6 c-71 -9 -115 -34 -138 -80 -19 -39 -20 -60
-20 -625 0 -528 2 -589 17 -622 21 -47 65 -74 134 -83 l54 -6 0 -40 0 -41
-482 5 c-513 4 -549 7 -699 57 -333 113 -515 417 -470 786 26 216 121 390 279
515 153 120 329 186 567 213 17 1 204 4 418 5 l387 1 0 -39z"/>
<path d="M820 1510 c-239 -38 -377 -199 -425 -495 -29 -175 -14 -385 38 -534
62 -176 183 -289 357 -332 83 -20 247 -18 287 4 60 32 58 11 58 642 0 577 0
580 -22 628 -18 38 -31 52 -65 67 -52 22 -154 31 -228 20z m237 -36 c65 -47
63 -28 63 -677 0 -370 -4 -595 -10 -607 -15 -29 -77 -44 -176 -43 -163 2 -280
46 -374 142 -66 68 -104 142 -135 265 -31 121 -40 256 -26 391 30 298 135 464
338 534 83 29 278 26 320 -5z"/>
</g>
</svg>
